solid OpenSCAD_Model
  facet normal 0.956408 0.292033 0
    outer loop
      vertex 4.478 -3.194 0
      vertex 4.478 -3.194 0.5
      vertex 4.518 -3.325 0.5
    endloop
  endfacet
  facet normal 0.956408 0.292033 0
    outer loop
      vertex 4.518 -3.325 0
      vertex 4.478 -3.194 0
      vertex 4.518 -3.325 0.5
    endloop
  endfacet
  facet normal 0.942215 0.33501 0
    outer loop
      vertex 4.43 -3.059 0
      vertex 4.43 -3.059 0.5
      vertex 4.478 -3.194 0.5
    endloop
  endfacet
  facet normal 0.942215 0.33501 0
    outer loop
      vertex 4.478 -3.194 0
      vertex 4.43 -3.059 0
      vertex 4.478 -3.194 0.5
    endloop
  endfacet
  facet normal -0 0 -1
    outer loop
      vertex 2.649 -3.567 0
      vertex 2.67 -3.45 0
      vertex 2.639 -3.675 0
    endloop
  endfacet
  facet normal 0 0 -1
    outer loop
      vertex 2.639 -3.675 0
      vertex 2.67 -3.45 0
      vertex 2.702 -3.325 0
    endloop
  endfacet
  facet normal 0 0 -1
    outer loop
      vertex 2.639 -3.675 0
      vertex 2.702 -3.325 0
      vertex 2.742 -3.194 0
    endloop
  endfacet
  facet normal 0 0 -1
    outer loop
      vertex 2.639 -3.675 0
      vertex 2.742 -3.194 0
      vertex 2.79 -3.059 0
    endloop
  endfacet
  facet normal 0 0 -1
    outer loop
      vertex 2.639 -3.675 0
      vertex 2.79 -3.059 0
      vertex 2.844 -2.92 0
    endloop
  endfacet
  facet normal 0 0 -1
    outer loop
      vertex 2.639 -3.675 0
      vertex 2.844 -2.92 0
      vertex 2.904 -2.78 0
    endloop
  endfacet
  facet normal 0 0 -1
    outer loop
      vertex 2.639 -3.675 0
      vertex 2.904 -2.78 0
      vertex 2.967 -2.639 0
    endloop
  endfacet
  facet normal 0 0 -1
    outer loop
      vertex 2.639 -3.675 0
      vertex 2.967 -2.639 0
      vertex 3.033 -2.5 0
    endloop
  endfacet
  facet normal 0 0 -1
    outer loop
      vertex 2.639 -3.675 0
      vertex 3.033 -2.5 0
      vertex 3.101 -2.363 0
    endloop
  endfacet
  facet normal 0 0 -1
    outer loop
      vertex 2.639 -3.675 0
      vertex 3.101 -2.363 0
      vertex 3.17 -2.231 0
    endloop
  endfacet
  facet normal 0 0 -1
    outer loop
      vertex 2.639 -3.675 0
      vertex 3.17 -2.231 0
      vertex 3.237 -2.104 0
    endloop
  endfacet
  facet normal 0 0 -1
    outer loop
      vertex 2.639 -3.675 0
      vertex 3.237 -2.104 0
      vertex 3.303 -1.984 0
    endloop
  endfacet
  facet normal 0 0 -1
    outer loop
      vertex 2.639 -3.675 0
      vertex 3.303 -1.984 0
      vertex 3.365 -1.873 0
    endloop
  endfacet
  facet normal 0 0 -1
    outer loop
      vertex 2.639 -3.675 0
      vertex 3.365 -1.873 0
      vertex 3.423 -1.772 0
    endloop
  endfacet
  facet normal 0 0 -1
    outer loop
      vertex 2.639 -3.675 0
      vertex 3.423 -1.772 0
      vertex 3.475 -1.682 0
    endloop
  endfacet
  facet normal 0 0 -1
    outer loop
      vertex 2.639 -3.675 0
      vertex 3.475 -1.682 0
      vertex 3.52 -1.605 0
    endloop
  endfacet
  facet normal 0 0 -1
    outer loop
      vertex 2.639 -3.675 0
      vertex 3.52 -1.605 0
      vertex 3.558 -1.543 0
    endloop
  endfacet
  facet normal 0 0 -1
    outer loop
      vertex 2.639 -3.675 0
      vertex 3.558 -1.543 0
      vertex 3.586 -1.497 0
    endloop
  endfacet
  facet normal 0 0 -1
    outer loop
      vertex 2.639 -3.675 0
      vertex 3.586 -1.497 0
      vertex 3.604 -1.468 0
    endloop
  endfacet
  facet normal 0 0 -1
    outer loop
      vertex 2.639 -3.675 0
      vertex 3.604 -1.468 0
      vertex 3.61 -1.458 0
    endloop
  endfacet
  facet normal 0 0 -1
    outer loop
      vertex 2.639 -3.675 0
      vertex 3.61 -1.458 0
      vertex 3.616 -1.468 0
    endloop
  endfacet
  facet normal 0 0 -1
    outer loop
      vertex 2.639 -3.675 0
      vertex 3.616 -1.468 0
      vertex 3.634 -1.497 0
    endloop
  endfacet
  facet normal 0 0 -1
    outer loop
      vertex 2.639 -3.675 0
      vertex 3.634 -1.497 0
      vertex 3.662 -1.543 0
    endloop
  endfacet
  facet normal 0 0 -1
    outer loop
      vertex 2.639 -3.675 0
      vertex 3.662 -1.543 0
      vertex 3.7 -1.605 0
    endloop
  endfacet
  facet normal 0 0 -1
    outer loop
      vertex 2.639 -3.675 0
      vertex 3.7 -1.605 0
      vertex 3.745 -1.682 0
    endloop
  endfacet
  facet normal 0 0 -1
    outer loop
      vertex 2.639 -3.675 0
      vertex 3.745 -1.682 0
      vertex 3.798 -1.772 0
    endloop
  endfacet
  facet normal 0 0 -1
    outer loop
      vertex 2.639 -3.675 0
      vertex 3.798 -1.772 0
      vertex 3.855 -1.873 0
    endloop
  endfacet
  facet normal 0 0 -1
    outer loop
      vertex 2.639 -3.675 0
      vertex 3.855 -1.873 0
      vertex 3.918 -1.984 0
    endloop
  endfacet
  facet normal 0 0 -1
    outer loop
      vertex 2.639 -3.675 0
      vertex 3.918 -1.984 0
      vertex 3.983 -2.104 0
    endloop
  endfacet
  facet normal 0 0 -1
    outer loop
      vertex 2.639 -3.675 0
      vertex 3.983 -2.104 0
      vertex 4.051 -2.231 0
    endloop
  endfacet
  facet normal 0 0 -1
    outer loop
      vertex 2.639 -3.675 0
      vertex 4.051 -2.231 0
      vertex 4.119 -2.363 0
    endloop
  endfacet
  facet normal 0 0 -1
    outer loop
      vertex 2.639 -3.675 0
      vertex 4.119 -2.363 0
      vertex 4.187 -2.5 0
    endloop
  endfacet
  facet normal 0 0 -1
    outer loop
      vertex 2.639 -3.675 0
      vertex 4.187 -2.5 0
      vertex 4.253 -2.639 0
    endloop
  endfacet
  facet normal 0 0 -1
    outer loop
      vertex 2.639 -3.675 0
      vertex 4.253 -2.639 0
      vertex 4.317 -2.78 0
    endloop
  endfacet
  facet normal 0 0 -1
    outer loop
      vertex 2.639 -3.675 0
      vertex 4.317 -2.78 0
      vertex 4.376 -2.92 0
    endloop
  endfacet
  facet normal 0 0 -1
    outer loop
      vertex 2.639 -3.675 0
      vertex 4.376 -2.92 0
      vertex 4.43 -3.059 0
    endloop
  endfacet
  facet normal 0 0 -1
    outer loop
      vertex 2.639 -3.675 0
      vertex 4.43 -3.059 0
      vertex 4.478 -3.194 0
    endloop
  endfacet
  facet normal 0 0 -1
    outer loop
      vertex 2.639 -3.675 0
      vertex 4.478 -3.194 0
      vertex 4.518 -3.325 0
    endloop
  endfacet
  facet normal 0 0 -1
    outer loop
      vertex 2.639 -3.675 0
      vertex 4.518 -3.325 0
      vertex 4.55 -3.45 0
    endloop
  endfacet
  facet normal 0 0 -1
    outer loop
      vertex 2.639 -3.675 0
      vertex 4.55 -3.45 0
      vertex 4.571 -3.567 0
    endloop
  endfacet
  facet normal -0 0 -1
    outer loop
      vertex 2.639 -3.675 0
      vertex 4.571 -3.567 0
      vertex 4.581 -3.675 0
    endloop
  endfacet
  facet normal 0 0 -1
    outer loop
      vertex 2.639 -3.675 0
      vertex 4.581 -3.675 0
      vertex 4.579 -3.772 0
    endloop
  endfacet
  facet normal 0 0 -1
    outer loop
      vertex 2.639 -3.675 0
      vertex 4.579 -3.772 0
      vertex 4.563 -3.857 0
    endloop
  endfacet
  facet normal 0 0 -1
    outer loop
      vertex 2.639 -3.675 0
      vertex 4.563 -3.857 0
      vertex 4.533 -3.929 0
    endloop
  endfacet
  facet normal 0 0 -1
    outer loop
      vertex 2.639 -3.675 0
      vertex 4.533 -3.929 0
      vertex 4.486 -3.986 0
    endloop
  endfacet
  facet normal 0 0 -1
    outer loop
      vertex 3.61 -3.84 0
      vertex 4.486 -3.986 0
      vertex 4.422 -4.026 0
    endloop
  endfacet
  facet normal 0 0 -1
    outer loop
      vertex 3.803 -3.929 0
      vertex 4.422 -4.026 0
      vertex 4.34 -4.048 0
    endloop
  endfacet
  facet normal 0 0 -1
    outer loop
      vertex 3.971 -3.993 0
      vertex 4.238 -4.051 0
      vertex 4.115 -4.033 0
    endloop
  endfacet
  facet normal 0 0 -1
    outer loop
      vertex 3.61 -3.84 0
      vertex 4.422 -4.026 0
      vertex 3.803 -3.929 0
    endloop
  endfacet
  facet normal 0 0 -1
    outer loop
      vertex 2.639 -3.675 0
      vertex 4.486 -3.986 0
      vertex 3.61 -3.84 0
    endloop
  endfacet
  facet normal 0 -0 -1
    outer loop
      vertex 3.418 -3.929 0
      vertex 2.639 -3.675 0
      vertex 3.61 -3.84 0
    endloop
  endfacet
  facet normal 0 0 -1
    outer loop
      vertex 2.639 -3.675 0
      vertex 3.418 -3.929 0
      vertex 3.25 -3.993 0
    endloop
  endfacet
  facet normal 0 0 -1
    outer loop
      vertex 3.25 -3.993 0
      vertex 3.105 -4.033 0
      vertex 2.639 -3.675 0
    endloop
  endfacet
  facet normal 0 0 -1
    outer loop
      vertex 2.639 -3.675 0
      vertex 3.105 -4.033 0
      vertex 2.982 -4.051 0
    endloop
  endfacet
  facet normal 0 0 -1
    outer loop
      vertex 2.639 -3.675 0
      vertex 2.982 -4.051 0
      vertex 2.88 -4.048 0
    endloop
  endfacet
  facet normal 0 0 -1
    outer loop
      vertex 2.639 -3.675 0
      vertex 2.88 -4.048 0
      vertex 2.798 -4.026 0
    endloop
  endfacet
  facet normal 0 0 -1
    outer loop
      vertex 2.639 -3.675 0
      vertex 2.798 -4.026 0
      vertex 2.734 -3.986 0
    endloop
  endfacet
  facet normal 0 0 -1
    outer loop
      vertex 2.639 -3.675 0
      vertex 2.734 -3.986 0
      vertex 2.687 -3.929 0
    endloop
  endfacet
  facet normal 0 0 -1
    outer loop
      vertex 2.639 -3.675 0
      vertex 2.687 -3.929 0
      vertex 2.657 -3.857 0
    endloop
  endfacet
  facet normal 0 0 -1
    outer loop
      vertex 2.639 -3.675 0
      vertex 2.657 -3.857 0
      vertex 2.641 -3.772 0
    endloop
  endfacet
  facet normal 0 0 -1
    outer loop
      vertex 3.803 -3.929 0
      vertex 4.34 -4.048 0
      vertex 4.238 -4.051 0
    endloop
  endfacet
  facet normal 0 0 -1
    outer loop
      vertex 3.803 -3.929 0
      vertex 4.238 -4.051 0
      vertex 3.971 -3.993 0
    endloop
  endfacet
  facet normal 0.968759 0.248002 0
    outer loop
      vertex 4.518 -3.325 0
      vertex 4.518 -3.325 0.5
      vertex 4.55 -3.45 0.5
    endloop
  endfacet
  facet normal 0.968759 0.248002 0
    outer loop
      vertex 4.55 -3.45 0
      vertex 4.518 -3.325 0
      vertex 4.55 -3.45 0.5
    endloop
  endfacet
  facet normal 0 0 1
    outer loop
      vertex 2.639 -3.675 0.5
      vertex 2.641 -3.772 0.5
      vertex 2.657 -3.857 0.5
    endloop
  endfacet
  facet normal 0 0 1
    outer loop
      vertex 2.734 -3.986 0.5
      vertex 2.639 -3.675 0.5
      vertex 2.687 -3.929 0.5
    endloop
  endfacet
  facet normal 0 0 1
    outer loop
      vertex 2.687 -3.929 0.5
      vertex 2.639 -3.675 0.5
      vertex 2.657 -3.857 0.5
    endloop
  endfacet
  facet normal 0 0 1
    outer loop
      vertex 2.798 -4.026 0.5
      vertex 2.639 -3.675 0.5
      vertex 2.734 -3.986 0.5
    endloop
  endfacet
  facet normal 0 0 1
    outer loop
      vertex 2.88 -4.048 0.5
      vertex 2.639 -3.675 0.5
      vertex 2.798 -4.026 0.5
    endloop
  endfacet
  facet normal 0 0 1
    outer loop
      vertex 2.982 -4.051 0.5
      vertex 2.639 -3.675 0.5
      vertex 2.88 -4.048 0.5
    endloop
  endfacet
  facet normal -0 0 1
    outer loop
      vertex 3.105 -4.033 0.5
      vertex 2.639 -3.675 0.5
      vertex 2.982 -4.051 0.5
    endloop
  endfacet
  facet normal -0 0 1
    outer loop
      vertex 3.25 -3.993 0.5
      vertex 2.639 -3.675 0.5
      vertex 3.105 -4.033 0.5
    endloop
  endfacet
  facet normal -0 0 1
    outer loop
      vertex 3.418 -3.929 0.5
      vertex 2.639 -3.675 0.5
      vertex 3.25 -3.993 0.5
    endloop
  endfacet
  facet normal -0 0 1
    outer loop
      vertex 3.61 -3.84 0.5
      vertex 2.639 -3.675 0.5
      vertex 3.418 -3.929 0.5
    endloop
  endfacet
  facet normal 0 0 1
    outer loop
      vertex 4.486 -3.986 0.5
      vertex 2.639 -3.675 0.5
      vertex 3.61 -3.84 0.5
    endloop
  endfacet
  facet normal 0 0 1
    outer loop
      vertex 3.971 -3.993 0.5
      vertex 3.61 -3.84 0.5
      vertex 3.803 -3.929 0.5
    endloop
  endfacet
  facet normal 0 0 1
    outer loop
      vertex 4.115 -4.033 0.5
      vertex 3.61 -3.84 0.5
      vertex 3.971 -3.993 0.5
    endloop
  endfacet
  facet normal 0 0 1
    outer loop
      vertex 4.238 -4.051 0.5
      vertex 3.61 -3.84 0.5
      vertex 4.115 -4.033 0.5
    endloop
  endfacet
  facet normal -0 0 1
    outer loop
      vertex 4.34 -4.048 0.5
      vertex 3.61 -3.84 0.5
      vertex 4.238 -4.051 0.5
    endloop
  endfacet
  facet normal -0 0 1
    outer loop
      vertex 4.422 -4.026 0.5
      vertex 3.61 -3.84 0.5
      vertex 4.34 -4.048 0.5
    endloop
  endfacet
  facet normal -0 0 1
    outer loop
      vertex 4.486 -3.986 0.5
      vertex 3.61 -3.84 0.5
      vertex 4.422 -4.026 0.5
    endloop
  endfacet
  facet normal -0 0 1
    outer loop
      vertex 4.533 -3.929 0.5
      vertex 2.639 -3.675 0.5
      vertex 4.486 -3.986 0.5
    endloop
  endfacet
  facet normal -0 0 1
    outer loop
      vertex 4.563 -3.857 0.5
      vertex 2.639 -3.675 0.5
      vertex 4.533 -3.929 0.5
    endloop
  endfacet
  facet normal -0 0 1
    outer loop
      vertex 4.579 -3.772 0.5
      vertex 2.639 -3.675 0.5
      vertex 4.563 -3.857 0.5
    endloop
  endfacet
  facet normal 0 0 1
    outer loop
      vertex 4.581 -3.675 0.5
      vertex 2.639 -3.675 0.5
      vertex 4.579 -3.772 0.5
    endloop
  endfacet
  facet normal 0 -0 1
    outer loop
      vertex 4.571 -3.567 0.5
      vertex 2.639 -3.675 0.5
      vertex 4.581 -3.675 0.5
    endloop
  endfacet
  facet normal 0 -0 1
    outer loop
      vertex 4.55 -3.45 0.5
      vertex 2.639 -3.675 0.5
      vertex 4.571 -3.567 0.5
    endloop
  endfacet
  facet normal 0 -0 1
    outer loop
      vertex 4.518 -3.325 0.5
      vertex 2.639 -3.675 0.5
      vertex 4.55 -3.45 0.5
    endloop
  endfacet
  facet normal 0 -0 1
    outer loop
      vertex 4.478 -3.194 0.5
      vertex 2.639 -3.675 0.5
      vertex 4.518 -3.325 0.5
    endloop
  endfacet
  facet normal 0 -0 1
    outer loop
      vertex 4.43 -3.059 0.5
      vertex 2.639 -3.675 0.5
      vertex 4.478 -3.194 0.5
    endloop
  endfacet
  facet normal 0 -0 1
    outer loop
      vertex 4.376 -2.92 0.5
      vertex 2.639 -3.675 0.5
      vertex 4.43 -3.059 0.5
    endloop
  endfacet
  facet normal 0 -0 1
    outer loop
      vertex 4.317 -2.78 0.5
      vertex 2.639 -3.675 0.5
      vertex 4.376 -2.92 0.5
    endloop
  endfacet
  facet normal 0 -0 1
    outer loop
      vertex 4.253 -2.639 0.5
      vertex 2.639 -3.675 0.5
      vertex 4.317 -2.78 0.5
    endloop
  endfacet
  facet normal 0 -0 1
    outer loop
      vertex 4.187 -2.5 0.5
      vertex 2.639 -3.675 0.5
      vertex 4.253 -2.639 0.5
    endloop
  endfacet
  facet normal 0 -0 1
    outer loop
      vertex 4.119 -2.363 0.5
      vertex 2.639 -3.675 0.5
      vertex 4.187 -2.5 0.5
    endloop
  endfacet
  facet normal 0 -0 1
    outer loop
      vertex 4.051 -2.231 0.5
      vertex 2.639 -3.675 0.5
      vertex 4.119 -2.363 0.5
    endloop
  endfacet
  facet normal 0 -0 1
    outer loop
      vertex 3.983 -2.104 0.5
      vertex 2.639 -3.675 0.5
      vertex 4.051 -2.231 0.5
    endloop
  endfacet
  facet normal 0 -0 1
    outer loop
      vertex 3.918 -1.984 0.5
      vertex 2.639 -3.675 0.5
      vertex 3.983 -2.104 0.5
    endloop
  endfacet
  facet normal 0 -0 1
    outer loop
      vertex 3.855 -1.873 0.5
      vertex 2.639 -3.675 0.5
      vertex 3.918 -1.984 0.5
    endloop
  endfacet
  facet normal 0 -0 1
    outer loop
      vertex 3.798 -1.772 0.5
      vertex 2.639 -3.675 0.5
      vertex 3.855 -1.873 0.5
    endloop
  endfacet
  facet normal 0 -0 1
    outer loop
      vertex 3.745 -1.682 0.5
      vertex 2.639 -3.675 0.5
      vertex 3.798 -1.772 0.5
    endloop
  endfacet
  facet normal 0 -0 1
    outer loop
      vertex 3.7 -1.605 0.5
      vertex 2.639 -3.675 0.5
      vertex 3.745 -1.682 0.5
    endloop
  endfacet
  facet normal 0 -0 1
    outer loop
      vertex 3.662 -1.543 0.5
      vertex 2.639 -3.675 0.5
      vertex 3.7 -1.605 0.5
    endloop
  endfacet
  facet normal 0 -0 1
    outer loop
      vertex 3.634 -1.497 0.5
      vertex 2.639 -3.675 0.5
      vertex 3.662 -1.543 0.5
    endloop
  endfacet
  facet normal 0 -0 1
    outer loop
      vertex 3.616 -1.468 0.5
      vertex 2.639 -3.675 0.5
      vertex 3.634 -1.497 0.5
    endloop
  endfacet
  facet normal 0 -0 1
    outer loop
      vertex 3.61 -1.458 0.5
      vertex 2.639 -3.675 0.5
      vertex 3.616 -1.468 0.5
    endloop
  endfacet
  facet normal 0 -0 1
    outer loop
      vertex 3.604 -1.468 0.5
      vertex 2.639 -3.675 0.5
      vertex 3.61 -1.458 0.5
    endloop
  endfacet
  facet normal 0 -0 1
    outer loop
      vertex 3.586 -1.497 0.5
      vertex 2.639 -3.675 0.5
      vertex 3.604 -1.468 0.5
    endloop
  endfacet
  facet normal 0 -0 1
    outer loop
      vertex 3.558 -1.543 0.5
      vertex 2.639 -3.675 0.5
      vertex 3.586 -1.497 0.5
    endloop
  endfacet
  facet normal 0 -0 1
    outer loop
      vertex 3.52 -1.605 0.5
      vertex 2.639 -3.675 0.5
      vertex 3.558 -1.543 0.5
    endloop
  endfacet
  facet normal 0 -0 1
    outer loop
      vertex 3.475 -1.682 0.5
      vertex 2.639 -3.675 0.5
      vertex 3.52 -1.605 0.5
    endloop
  endfacet
  facet normal 0 -0 1
    outer loop
      vertex 3.423 -1.772 0.5
      vertex 2.639 -3.675 0.5
      vertex 3.475 -1.682 0.5
    endloop
  endfacet
  facet normal 0 -0 1
    outer loop
      vertex 3.365 -1.873 0.5
      vertex 2.639 -3.675 0.5
      vertex 3.423 -1.772 0.5
    endloop
  endfacet
  facet normal 0 -0 1
    outer loop
      vertex 3.303 -1.984 0.5
      vertex 2.639 -3.675 0.5
      vertex 3.365 -1.873 0.5
    endloop
  endfacet
  facet normal 0 -0 1
    outer loop
      vertex 3.237 -2.104 0.5
      vertex 2.639 -3.675 0.5
      vertex 3.303 -1.984 0.5
    endloop
  endfacet
  facet normal 0 -0 1
    outer loop
      vertex 3.17 -2.231 0.5
      vertex 2.639 -3.675 0.5
      vertex 3.237 -2.104 0.5
    endloop
  endfacet
  facet normal 0 -0 1
    outer loop
      vertex 3.101 -2.363 0.5
      vertex 2.639 -3.675 0.5
      vertex 3.17 -2.231 0.5
    endloop
  endfacet
  facet normal 0 -0 1
    outer loop
      vertex 3.033 -2.5 0.5
      vertex 2.639 -3.675 0.5
      vertex 3.101 -2.363 0.5
    endloop
  endfacet
  facet normal 0 -0 1
    outer loop
      vertex 2.967 -2.639 0.5
      vertex 2.639 -3.675 0.5
      vertex 3.033 -2.5 0.5
    endloop
  endfacet
  facet normal 0 -0 1
    outer loop
      vertex 2.904 -2.78 0.5
      vertex 2.639 -3.675 0.5
      vertex 2.967 -2.639 0.5
    endloop
  endfacet
  facet normal 0 -0 1
    outer loop
      vertex 2.844 -2.92 0.5
      vertex 2.639 -3.675 0.5
      vertex 2.904 -2.78 0.5
    endloop
  endfacet
  facet normal 0 -0 1
    outer loop
      vertex 2.79 -3.059 0.5
      vertex 2.639 -3.675 0.5
      vertex 2.844 -2.92 0.5
    endloop
  endfacet
  facet normal 0 -0 1
    outer loop
      vertex 2.742 -3.194 0.5
      vertex 2.639 -3.675 0.5
      vertex 2.79 -3.059 0.5
    endloop
  endfacet
  facet normal 0 -0 1
    outer loop
      vertex 2.702 -3.325 0.5
      vertex 2.639 -3.675 0.5
      vertex 2.742 -3.194 0.5
    endloop
  endfacet
  facet normal 0 -0 1
    outer loop
      vertex 2.67 -3.45 0.5
      vertex 2.639 -3.675 0.5
      vertex 2.702 -3.325 0.5
    endloop
  endfacet
  facet normal 0 -0 1
    outer loop
      vertex 2.649 -3.567 0.5
      vertex 2.639 -3.675 0.5
      vertex 2.67 -3.45 0.5
    endloop
  endfacet
  facet normal 0.93213 0.362123 0
    outer loop
      vertex 4.376 -2.92 0
      vertex 4.376 -2.92 0.5
      vertex 4.43 -3.059 0.5
    endloop
  endfacet
  facet normal 0.93213 0.362123 0
    outer loop
      vertex 4.43 -3.059 0
      vertex 4.376 -2.92 0
      vertex 4.43 -3.059 0.5
    endloop
  endfacet
  facet normal -0.999788 -0.0206142 -0
    outer loop
      vertex 2.641 -3.772 0
      vertex 2.641 -3.772 0.5
      vertex 2.639 -3.675 0
    endloop
  endfacet
  facet normal -0.999788 -0.0206142 -0
    outer loop
      vertex 2.639 -3.675 0
      vertex 2.641 -3.772 0.5
      vertex 2.639 -3.675 0.5
    endloop
  endfacet
  facet normal -0.995741 0.0921982 0
    outer loop
      vertex 2.639 -3.675 0.5
      vertex 2.649 -3.567 0.5
      vertex 2.639 -3.675 0
    endloop
  endfacet
  facet normal -0.995741 0.0921982 0
    outer loop
      vertex 2.639 -3.675 0
      vertex 2.649 -3.567 0.5
      vertex 2.649 -3.567 0
    endloop
  endfacet
  facet normal -0.982741 -0.184987 -0
    outer loop
      vertex 2.657 -3.857 0
      vertex 2.657 -3.857 0.5
      vertex 2.641 -3.772 0
    endloop
  endfacet
  facet normal -0.982741 -0.184987 -0
    outer loop
      vertex 2.641 -3.772 0
      vertex 2.657 -3.857 0.5
      vertex 2.641 -3.772 0.5
    endloop
  endfacet
  facet normal -0.923077 -0.384615 -0
    outer loop
      vertex 2.687 -3.929 0
      vertex 2.687 -3.929 0.5
      vertex 2.657 -3.857 0
    endloop
  endfacet
  facet normal -0.923077 -0.384615 -0
    outer loop
      vertex 2.657 -3.857 0
      vertex 2.687 -3.929 0.5
      vertex 2.657 -3.857 0.5
    endloop
  endfacet
  facet normal -0.771539 -0.636182 -0
    outer loop
      vertex 2.734 -3.986 0
      vertex 2.734 -3.986 0.5
      vertex 2.687 -3.929 0
    endloop
  endfacet
  facet normal -0.771539 -0.636182 -0
    outer loop
      vertex 2.687 -3.929 0
      vertex 2.734 -3.986 0.5
      vertex 2.687 -3.929 0.5
    endloop
  endfacet
  facet normal -0.529999 -0.847998 0
    outer loop
      vertex 2.734 -3.986 0
      vertex 2.798 -4.026 0
      vertex 2.798 -4.026 0.5
    endloop
  endfacet
  facet normal -0.529999 -0.847998 0
    outer loop
      vertex 2.734 -3.986 0.5
      vertex 2.734 -3.986 0
      vertex 2.798 -4.026 0.5
    endloop
  endfacet
  facet normal -0.259129 -0.965843 0
    outer loop
      vertex 2.798 -4.026 0
      vertex 2.88 -4.048 0
      vertex 2.88 -4.048 0.5
    endloop
  endfacet
  facet normal -0.259129 -0.965843 0
    outer loop
      vertex 2.798 -4.026 0.5
      vertex 2.798 -4.026 0
      vertex 2.88 -4.048 0.5
    endloop
  endfacet
  facet normal -0.0293991 -0.999568 0
    outer loop
      vertex 2.88 -4.048 0
      vertex 2.982 -4.051 0
      vertex 2.982 -4.051 0.5
    endloop
  endfacet
  facet normal -0.0293991 -0.999568 0
    outer loop
      vertex 2.88 -4.048 0.5
      vertex 2.88 -4.048 0
      vertex 2.982 -4.051 0.5
    endloop
  endfacet
  facet normal 0.144799 -0.989461 0
    outer loop
      vertex 2.982 -4.051 0
      vertex 3.105 -4.033 0
      vertex 3.105 -4.033 0.5
    endloop
  endfacet
  facet normal 0.144799 -0.989461 0
    outer loop
      vertex 2.982 -4.051 0.5
      vertex 2.982 -4.051 0
      vertex 3.105 -4.033 0.5
    endloop
  endfacet
  facet normal 0.265929 -0.963993 0
    outer loop
      vertex 3.105 -4.033 0
      vertex 3.25 -3.993 0
      vertex 3.25 -3.993 0.5
    endloop
  endfacet
  facet normal 0.265929 -0.963993 0
    outer loop
      vertex 3.105 -4.033 0.5
      vertex 3.105 -4.033 0
      vertex 3.25 -3.993 0.5
    endloop
  endfacet
  facet normal 0.355995 -0.934488 0
    outer loop
      vertex 3.25 -3.993 0
      vertex 3.418 -3.929 0
      vertex 3.418 -3.929 0.5
    endloop
  endfacet
  facet normal 0.355995 -0.934488 0
    outer loop
      vertex 3.25 -3.993 0.5
      vertex 3.25 -3.993 0
      vertex 3.418 -3.929 0.5
    endloop
  endfacet
  facet normal 0.420556 -0.907267 0
    outer loop
      vertex 3.418 -3.929 0
      vertex 3.61 -3.84 0
      vertex 3.61 -3.84 0.5
    endloop
  endfacet
  facet normal 0.420556 -0.907267 0
    outer loop
      vertex 3.418 -3.929 0.5
      vertex 3.418 -3.929 0
      vertex 3.61 -3.84 0.5
    endloop
  endfacet
  facet normal -0.41876 -0.908097 0
    outer loop
      vertex 3.61 -3.84 0
      vertex 3.803 -3.929 0
      vertex 3.803 -3.929 0.5
    endloop
  endfacet
  facet normal -0.41876 -0.908097 0
    outer loop
      vertex 3.61 -3.84 0.5
      vertex 3.61 -3.84 0
      vertex 3.803 -3.929 0.5
    endloop
  endfacet
  facet normal -0.355995 -0.934488 0
    outer loop
      vertex 3.803 -3.929 0
      vertex 3.971 -3.993 0
      vertex 3.971 -3.993 0.5
    endloop
  endfacet
  facet normal -0.355995 -0.934488 0
    outer loop
      vertex 3.803 -3.929 0.5
      vertex 3.803 -3.929 0
      vertex 3.971 -3.993 0.5
    endloop
  endfacet
  facet normal -0.267644 -0.963518 0
    outer loop
      vertex 3.971 -3.993 0
      vertex 4.115 -4.033 0
      vertex 4.115 -4.033 0.5
    endloop
  endfacet
  facet normal -0.267644 -0.963518 0
    outer loop
      vertex 3.971 -3.993 0.5
      vertex 3.971 -3.993 0
      vertex 4.115 -4.033 0.5
    endloop
  endfacet
  facet normal -0.144799 -0.989461 0
    outer loop
      vertex 4.115 -4.033 0
      vertex 4.238 -4.051 0
      vertex 4.238 -4.051 0.5
    endloop
  endfacet
  facet normal -0.144799 -0.989461 0
    outer loop
      vertex 4.115 -4.033 0.5
      vertex 4.115 -4.033 0
      vertex 4.238 -4.051 0.5
    endloop
  endfacet
  facet normal 0.0293991 -0.999568 0
    outer loop
      vertex 4.238 -4.051 0
      vertex 4.34 -4.048 0
      vertex 4.34 -4.048 0.5
    endloop
  endfacet
  facet normal 0.0293991 -0.999568 0
    outer loop
      vertex 4.238 -4.051 0.5
      vertex 4.238 -4.051 0
      vertex 4.34 -4.048 0.5
    endloop
  endfacet
  facet normal 0.259129 -0.965843 0
    outer loop
      vertex 4.34 -4.048 0
      vertex 4.422 -4.026 0
      vertex 4.422 -4.026 0.5
    endloop
  endfacet
  facet normal 0.259129 -0.965843 0
    outer loop
      vertex 4.34 -4.048 0.5
      vertex 4.34 -4.048 0
      vertex 4.422 -4.026 0.5
    endloop
  endfacet
  facet normal 0.529999 -0.847998 0
    outer loop
      vertex 4.422 -4.026 0
      vertex 4.486 -3.986 0
      vertex 4.486 -3.986 0.5
    endloop
  endfacet
  facet normal 0.529999 -0.847998 0
    outer loop
      vertex 4.422 -4.026 0.5
      vertex 4.422 -4.026 0
      vertex 4.486 -3.986 0.5
    endloop
  endfacet
  facet normal 0.771539 -0.636182 0
    outer loop
      vertex 4.486 -3.986 0
      vertex 4.533 -3.929 0
      vertex 4.533 -3.929 0.5
    endloop
  endfacet
  facet normal 0.771539 -0.636182 0
    outer loop
      vertex 4.486 -3.986 0.5
      vertex 4.486 -3.986 0
      vertex 4.533 -3.929 0.5
    endloop
  endfacet
  facet normal 0.923077 -0.384615 0
    outer loop
      vertex 4.533 -3.929 0
      vertex 4.563 -3.857 0
      vertex 4.563 -3.857 0.5
    endloop
  endfacet
  facet normal 0.923077 -0.384615 0
    outer loop
      vertex 4.533 -3.929 0.5
      vertex 4.533 -3.929 0
      vertex 4.563 -3.857 0.5
    endloop
  endfacet
  facet normal 0.982741 -0.184987 0
    outer loop
      vertex 4.563 -3.857 0
      vertex 4.579 -3.772 0
      vertex 4.579 -3.772 0.5
    endloop
  endfacet
  facet normal 0.982741 -0.184987 0
    outer loop
      vertex 4.563 -3.857 0.5
      vertex 4.563 -3.857 0
      vertex 4.579 -3.772 0.5
    endloop
  endfacet
  facet normal 0.999788 -0.0206142 0
    outer loop
      vertex 4.579 -3.772 0
      vertex 4.581 -3.675 0
      vertex 4.581 -3.675 0.5
    endloop
  endfacet
  facet normal 0.999788 -0.0206142 0
    outer loop
      vertex 4.579 -3.772 0.5
      vertex 4.579 -3.772 0
      vertex 4.581 -3.675 0.5
    endloop
  endfacet
  facet normal 0.995741 0.0921982 0
    outer loop
      vertex 4.571 -3.567 0
      vertex 4.571 -3.567 0.5
      vertex 4.581 -3.675 0.5
    endloop
  endfacet
  facet normal 0.995741 0.0921982 0
    outer loop
      vertex 4.581 -3.675 0
      vertex 4.571 -3.567 0
      vertex 4.581 -3.675 0.5
    endloop
  endfacet
  facet normal 0.984271 0.176664 0
    outer loop
      vertex 4.55 -3.45 0
      vertex 4.55 -3.45 0.5
      vertex 4.571 -3.567 0.5
    endloop
  endfacet
  facet normal 0.984271 0.176664 0
    outer loop
      vertex 4.571 -3.567 0
      vertex 4.55 -3.45 0
      vertex 4.571 -3.567 0.5
    endloop
  endfacet
  facet normal 0.921511 0.388351 0
    outer loop
      vertex 4.317 -2.78 0
      vertex 4.317 -2.78 0.5
      vertex 4.376 -2.92 0.5
    endloop
  endfacet
  facet normal 0.921511 0.388351 0
    outer loop
      vertex 4.376 -2.92 0
      vertex 4.317 -2.78 0
      vertex 4.376 -2.92 0.5
    endloop
  endfacet
  facet normal 0.910588 0.413316 0
    outer loop
      vertex 4.253 -2.639 0
      vertex 4.253 -2.639 0.5
      vertex 4.317 -2.78 0.5
    endloop
  endfacet
  facet normal 0.910588 0.413316 0
    outer loop
      vertex 4.317 -2.78 0
      vertex 4.253 -2.639 0
      vertex 4.317 -2.78 0.5
    endloop
  endfacet
  facet normal 0.90334 0.428924 0
    outer loop
      vertex 4.187 -2.5 0
      vertex 4.187 -2.5 0.5
      vertex 4.253 -2.639 0.5
    endloop
  endfacet
  facet normal 0.90334 0.428924 0
    outer loop
      vertex 4.253 -2.639 0
      vertex 4.187 -2.5 0
      vertex 4.253 -2.639 0.5
    endloop
  endfacet
  facet normal 0.895731 0.444596 0
    outer loop
      vertex 4.119 -2.363 0
      vertex 4.119 -2.363 0.5
      vertex 4.187 -2.5 0.5
    endloop
  endfacet
  facet normal 0.895731 0.444596 0
    outer loop
      vertex 4.187 -2.5 0
      vertex 4.119 -2.363 0
      vertex 4.187 -2.5 0.5
    endloop
  endfacet
  facet normal 0.888975 0.457957 0
    outer loop
      vertex 4.051 -2.231 0
      vertex 4.051 -2.231 0.5
      vertex 4.119 -2.363 0.5
    endloop
  endfacet
  facet normal 0.888975 0.457957 0
    outer loop
      vertex 4.119 -2.363 0
      vertex 4.051 -2.231 0
      vertex 4.119 -2.363 0.5
    endloop
  endfacet
  facet normal 0.881583 0.472029 0
    outer loop
      vertex 3.983 -2.104 0
      vertex 3.983 -2.104 0.5
      vertex 4.051 -2.231 0.5
    endloop
  endfacet
  facet normal 0.881583 0.472029 0
    outer loop
      vertex 4.051 -2.231 0
      vertex 3.983 -2.104 0
      vertex 4.051 -2.231 0.5
    endloop
  endfacet
  facet normal 0.879292 0.476283 0
    outer loop
      vertex 3.918 -1.984 0
      vertex 3.918 -1.984 0.5
      vertex 3.983 -2.104 0.5
    endloop
  endfacet
  facet normal 0.879292 0.476283 0
    outer loop
      vertex 3.983 -2.104 0
      vertex 3.918 -1.984 0
      vertex 3.983 -2.104 0.5
    endloop
  endfacet
  facet normal 0.869686 0.493606 0
    outer loop
      vertex 3.855 -1.873 0
      vertex 3.855 -1.873 0.5
      vertex 3.918 -1.984 0.5
    endloop
  endfacet
  facet normal 0.869686 0.493606 0
    outer loop
      vertex 3.918 -1.984 0
      vertex 3.855 -1.873 0
      vertex 3.918 -1.984 0.5
    endloop
  endfacet
  facet normal 0.870884 0.491489 0
    outer loop
      vertex 3.798 -1.772 0
      vertex 3.798 -1.772 0.5
      vertex 3.855 -1.873 0.5
    endloop
  endfacet
  facet normal 0.870884 0.491489 0
    outer loop
      vertex 3.855 -1.873 0
      vertex 3.798 -1.772 0
      vertex 3.855 -1.873 0.5
    endloop
  endfacet
  facet normal 0.861688 0.507438 0
    outer loop
      vertex 3.745 -1.682 0
      vertex 3.745 -1.682 0.5
      vertex 3.798 -1.772 0.5
    endloop
  endfacet
  facet normal 0.861688 0.507438 0
    outer loop
      vertex 3.798 -1.772 0
      vertex 3.745 -1.682 0
      vertex 3.798 -1.772 0.5
    endloop
  endfacet
  facet normal 0.863372 0.504568 0
    outer loop
      vertex 3.7 -1.605 0
      vertex 3.7 -1.605 0.5
      vertex 3.745 -1.682 0.5
    endloop
  endfacet
  facet normal 0.863372 0.504568 0
    outer loop
      vertex 3.745 -1.682 0
      vertex 3.7 -1.605 0
      vertex 3.745 -1.682 0.5
    endloop
  endfacet
  facet normal 0.852601 0.522562 0
    outer loop
      vertex 3.662 -1.543 0
      vertex 3.662 -1.543 0.5
      vertex 3.7 -1.605 0.5
    endloop
  endfacet
  facet normal 0.852601 0.522562 0
    outer loop
      vertex 3.7 -1.605 0
      vertex 3.662 -1.543 0
      vertex 3.7 -1.605 0.5
    endloop
  endfacet
  facet normal 0.854199 0.519947 0
    outer loop
      vertex 3.634 -1.497 0
      vertex 3.634 -1.497 0.5
      vertex 3.662 -1.543 0.5
    endloop
  endfacet
  facet normal 0.854199 0.519947 0
    outer loop
      vertex 3.662 -1.543 0
      vertex 3.634 -1.497 0
      vertex 3.662 -1.543 0.5
    endloop
  endfacet
  facet normal 0.84964 0.527363 0
    outer loop
      vertex 3.616 -1.468 0
      vertex 3.616 -1.468 0.5
      vertex 3.634 -1.497 0.5
    endloop
  endfacet
  facet normal 0.84964 0.527363 0
    outer loop
      vertex 3.634 -1.497 0
      vertex 3.616 -1.468 0
      vertex 3.634 -1.497 0.5
    endloop
  endfacet
  facet normal 0.857493 0.514496 0
    outer loop
      vertex 3.61 -1.458 0
      vertex 3.61 -1.458 0.5
      vertex 3.616 -1.468 0.5
    endloop
  endfacet
  facet normal 0.857493 0.514496 0
    outer loop
      vertex 3.616 -1.468 0
      vertex 3.61 -1.458 0
      vertex 3.616 -1.468 0.5
    endloop
  endfacet
  facet normal -0.857493 0.514496 0
    outer loop
      vertex 3.604 -1.468 0.5
      vertex 3.61 -1.458 0.5
      vertex 3.604 -1.468 0
    endloop
  endfacet
  facet normal -0.857493 0.514496 0
    outer loop
      vertex 3.604 -1.468 0
      vertex 3.61 -1.458 0.5
      vertex 3.61 -1.458 0
    endloop
  endfacet
  facet normal -0.84964 0.527363 0
    outer loop
      vertex 3.586 -1.497 0.5
      vertex 3.604 -1.468 0.5
      vertex 3.586 -1.497 0
    endloop
  endfacet
  facet normal -0.84964 0.527363 0
    outer loop
      vertex 3.586 -1.497 0
      vertex 3.604 -1.468 0.5
      vertex 3.604 -1.468 0
    endloop
  endfacet
  facet normal -0.854199 0.519947 0
    outer loop
      vertex 3.558 -1.543 0.5
      vertex 3.586 -1.497 0.5
      vertex 3.558 -1.543 0
    endloop
  endfacet
  facet normal -0.854199 0.519947 0
    outer loop
      vertex 3.558 -1.543 0
      vertex 3.586 -1.497 0.5
      vertex 3.586 -1.497 0
    endloop
  endfacet
  facet normal -0.852601 0.522562 0
    outer loop
      vertex 3.52 -1.605 0.5
      vertex 3.558 -1.543 0.5
      vertex 3.52 -1.605 0
    endloop
  endfacet
  facet normal -0.852601 0.522562 0
    outer loop
      vertex 3.52 -1.605 0
      vertex 3.558 -1.543 0.5
      vertex 3.558 -1.543 0
    endloop
  endfacet
  facet normal -0.863372 0.504568 0
    outer loop
      vertex 3.475 -1.682 0.5
      vertex 3.52 -1.605 0.5
      vertex 3.475 -1.682 0
    endloop
  endfacet
  facet normal -0.863372 0.504568 0
    outer loop
      vertex 3.475 -1.682 0
      vertex 3.52 -1.605 0.5
      vertex 3.52 -1.605 0
    endloop
  endfacet
  facet normal -0.865865 0.500278 0
    outer loop
      vertex 3.423 -1.772 0.5
      vertex 3.475 -1.682 0.5
      vertex 3.423 -1.772 0
    endloop
  endfacet
  facet normal -0.865865 0.500278 0
    outer loop
      vertex 3.423 -1.772 0
      vertex 3.475 -1.682 0.5
      vertex 3.475 -1.682 0
    endloop
  endfacet
  facet normal -0.867184 0.497987 0
    outer loop
      vertex 3.365 -1.873 0.5
      vertex 3.423 -1.772 0.5
      vertex 3.365 -1.873 0
    endloop
  endfacet
  facet normal -0.867184 0.497987 0
    outer loop
      vertex 3.365 -1.873 0
      vertex 3.423 -1.772 0.5
      vertex 3.423 -1.772 0
    endloop
  endfacet
  facet normal -0.873042 0.487645 0
    outer loop
      vertex 3.303 -1.984 0.5
      vertex 3.365 -1.873 0.5
      vertex 3.303 -1.984 0
    endloop
  endfacet
  facet normal -0.873042 0.487645 0
    outer loop
      vertex 3.303 -1.984 0
      vertex 3.365 -1.873 0.5
      vertex 3.365 -1.873 0
    endloop
  endfacet
  facet normal -0.876216 0.481919 0
    outer loop
      vertex 3.237 -2.104 0.5
      vertex 3.303 -1.984 0.5
      vertex 3.237 -2.104 0
    endloop
  endfacet
  facet normal -0.876216 0.481919 0
    outer loop
      vertex 3.237 -2.104 0
      vertex 3.303 -1.984 0.5
      vertex 3.303 -1.984 0
    endloop
  endfacet
  facet normal -0.884465 0.466607 0
    outer loop
      vertex 3.17 -2.231 0.5
      vertex 3.237 -2.104 0.5
      vertex 3.17 -2.231 0
    endloop
  endfacet
  facet normal -0.884465 0.466607 0
    outer loop
      vertex 3.17 -2.231 0
      vertex 3.237 -2.104 0.5
      vertex 3.237 -2.104 0
    endloop
  endfacet
  facet normal -0.886225 0.463254 0
    outer loop
      vertex 3.101 -2.363 0.5
      vertex 3.17 -2.231 0.5
      vertex 3.101 -2.363 0
    endloop
  endfacet
  facet normal -0.886225 0.463254 0
    outer loop
      vertex 3.101 -2.363 0
      vertex 3.17 -2.231 0.5
      vertex 3.17 -2.231 0
    endloop
  endfacet
  facet normal -0.895731 0.444596 0
    outer loop
      vertex 3.033 -2.5 0.5
      vertex 3.101 -2.363 0.5
      vertex 3.033 -2.5 0
    endloop
  endfacet
  facet normal -0.895731 0.444596 0
    outer loop
      vertex 3.033 -2.5 0
      vertex 3.101 -2.363 0.5
      vertex 3.101 -2.363 0
    endloop
  endfacet
  facet normal -0.90334 0.428924 0
    outer loop
      vertex 2.967 -2.639 0.5
      vertex 3.033 -2.5 0.5
      vertex 2.967 -2.639 0
    endloop
  endfacet
  facet normal -0.90334 0.428924 0
    outer loop
      vertex 2.967 -2.639 0
      vertex 3.033 -2.5 0.5
      vertex 3.033 -2.5 0
    endloop
  endfacet
  facet normal -0.913009 0.40794 0
    outer loop
      vertex 2.904 -2.78 0.5
      vertex 2.967 -2.639 0.5
      vertex 2.904 -2.78 0
    endloop
  endfacet
  facet normal -0.913009 0.40794 0
    outer loop
      vertex 2.904 -2.78 0
      vertex 2.967 -2.639 0.5
      vertex 2.967 -2.639 0
    endloop
  endfacet
  facet normal -0.919145 0.393919 0
    outer loop
      vertex 2.844 -2.92 0.5
      vertex 2.904 -2.78 0.5
      vertex 2.844 -2.92 0
    endloop
  endfacet
  facet normal -0.919145 0.393919 0
    outer loop
      vertex 2.844 -2.92 0
      vertex 2.904 -2.78 0.5
      vertex 2.904 -2.78 0
    endloop
  endfacet
  facet normal -0.93213 0.362123 0
    outer loop
      vertex 2.79 -3.059 0.5
      vertex 2.844 -2.92 0.5
      vertex 2.79 -3.059 0
    endloop
  endfacet
  facet normal -0.93213 0.362123 0
    outer loop
      vertex 2.79 -3.059 0
      vertex 2.844 -2.92 0.5
      vertex 2.844 -2.92 0
    endloop
  endfacet
  facet normal -0.942215 0.33501 0
    outer loop
      vertex 2.742 -3.194 0.5
      vertex 2.79 -3.059 0.5
      vertex 2.742 -3.194 0
    endloop
  endfacet
  facet normal -0.942215 0.33501 0
    outer loop
      vertex 2.742 -3.194 0
      vertex 2.79 -3.059 0.5
      vertex 2.79 -3.059 0
    endloop
  endfacet
  facet normal -0.956408 0.292033 0
    outer loop
      vertex 2.702 -3.325 0.5
      vertex 2.742 -3.194 0.5
      vertex 2.702 -3.325 0
    endloop
  endfacet
  facet normal -0.956408 0.292033 0
    outer loop
      vertex 2.702 -3.325 0
      vertex 2.742 -3.194 0.5
      vertex 2.742 -3.194 0
    endloop
  endfacet
  facet normal -0.968759 0.248002 0
    outer loop
      vertex 2.67 -3.45 0.5
      vertex 2.702 -3.325 0.5
      vertex 2.67 -3.45 0
    endloop
  endfacet
  facet normal -0.968759 0.248002 0
    outer loop
      vertex 2.67 -3.45 0
      vertex 2.702 -3.325 0.5
      vertex 2.702 -3.325 0
    endloop
  endfacet
  facet normal -0.984271 0.176664 0
    outer loop
      vertex 2.649 -3.567 0.5
      vertex 2.67 -3.45 0.5
      vertex 2.649 -3.567 0
    endloop
  endfacet
  facet normal -0.984271 0.176664 0
    outer loop
      vertex 2.649 -3.567 0
      vertex 2.67 -3.45 0.5
      vertex 2.67 -3.45 0
    endloop
  endfacet
endsolid OpenSCAD_Model
